<svg width="104" height="104" viewBox="0 0 104 104" fill="none" xmlns="http://www.w3.org/2000/svg">
<rect width="104" height="104" rx="52" fill="#B9BFD0"/>
<path d="M35.5313 80.8491L18.9165 89.5711C17.9415 90.0828 17.0653 90.7117 16.25 91.3972C25.9369 99.2578 38.4415 104 52.104 104C65.6656 104 78.0904 99.3286 87.75 91.5752C86.8591 90.8512 85.8925 90.2 84.8208 89.6864L67.0294 81.1261C64.7306 80.02 63.2786 77.7591 63.2786 75.2858V68.5679C63.7787 68.0198 64.3502 67.3161 64.9617 66.4849C67.3866 63.1886 69.221 59.5627 70.4922 55.7588C72.7742 55.0814 74.4552 53.053 74.4552 50.6425V43.4715C74.4552 41.8942 73.7261 40.4846 72.5935 39.4978V29.1316C72.5935 29.1316 74.8062 13 52.1061 13C29.4061 13 31.6187 29.1316 31.6187 29.1316V39.4978C30.484 40.4846 29.757 41.8942 29.757 43.4715V50.6425C29.757 52.5313 30.7887 54.1936 32.3331 55.1542C34.1949 62.954 39.0698 68.5679 39.0698 68.5679V75.12C39.0677 77.5063 37.7103 79.7045 35.5313 80.8491Z" fill="#E7ECED"/>
</svg>
