<svg width="91" height="13" viewBox="0 0 91 13" fill="none" xmlns="http://www.w3.org/2000/svg">
<path d="M10.4766 12H8.0625V2.59375H5.26562C5.20312 3.08333 5.13542 3.61719 5.0625 4.19531C4.98958 4.77344 4.91406 5.35677 4.83594 5.94531C4.75781 6.53385 4.67448 7.09375 4.58594 7.625C4.5026 8.15625 4.41927 8.6224 4.33594 9.02344C4.20052 9.6901 4.01562 10.2578 3.78125 10.7266C3.55208 11.1901 3.23698 11.5443 2.83594 11.7891C2.4401 12.0339 1.92188 12.1562 1.28125 12.1562C1.06771 12.1562 0.861979 12.1406 0.664062 12.1094C0.471354 12.0781 0.291667 12.0365 0.125 11.9844V10C0.260417 10.0469 0.395833 10.0859 0.53125 10.1172C0.666667 10.1432 0.815104 10.1562 0.976562 10.1562C1.1849 10.1562 1.35677 10.0885 1.49219 9.95312C1.63281 9.8125 1.75781 9.57552 1.86719 9.24219C1.97656 8.90365 2.08594 8.4375 2.19531 7.84375C2.24219 7.58333 2.30469 7.21615 2.38281 6.74219C2.46094 6.26302 2.54948 5.70312 2.64844 5.0625C2.7474 4.41667 2.84896 3.71354 2.95312 2.95312C3.0625 2.19271 3.16667 1.40104 3.26562 0.578125H10.4766V12ZM25.6466 6.27344C25.6466 7.15365 25.5372 7.95573 25.3184 8.67969C25.0997 9.39844 24.7664 10.0182 24.3184 10.5391C23.8757 11.0599 23.3132 11.4609 22.6309 11.7422C21.9486 12.0182 21.1414 12.1562 20.2091 12.1562C19.2768 12.1562 18.4695 12.0182 17.7872 11.7422C17.1049 11.4609 16.5398 11.0599 16.0919 10.5391C15.6492 10.0182 15.3184 9.39583 15.0997 8.67188C14.8809 7.94792 14.7716 7.14323 14.7716 6.25781C14.7716 5.07552 14.9643 4.04688 15.3497 3.17188C15.7403 2.29167 16.3393 1.60938 17.1466 1.125C17.9539 0.640625 18.9799 0.398438 20.2247 0.398438C21.4643 0.398438 22.4825 0.640625 23.2794 1.125C24.0815 1.60938 24.6752 2.29167 25.0606 3.17188C25.4513 4.05208 25.6466 5.08594 25.6466 6.27344ZM17.3106 6.27344C17.3106 7.07031 17.4096 7.75781 17.6075 8.33594C17.8106 8.90885 18.1257 9.35156 18.5528 9.66406C18.9799 9.97135 19.532 10.125 20.2091 10.125C20.8966 10.125 21.4539 9.97135 21.8809 9.66406C22.308 9.35156 22.6179 8.90885 22.8106 8.33594C23.0085 7.75781 23.1075 7.07031 23.1075 6.27344C23.1075 5.07552 22.8835 4.13281 22.4356 3.44531C21.9877 2.75781 21.2507 2.41406 20.2247 2.41406C19.5424 2.41406 18.9851 2.57031 18.5528 2.88281C18.1257 3.1901 17.8106 3.63281 17.6075 4.21094C17.4096 4.78385 17.3106 5.47135 17.3106 6.27344ZM37.1525 0.578125V2.57812H32.3556V12H29.9338V0.578125H37.1525ZM51.2053 6.27344C51.2053 7.15365 51.0959 7.95573 50.8772 8.67969C50.6584 9.39844 50.3251 10.0182 49.8772 10.5391C49.4345 11.0599 48.872 11.4609 48.1897 11.7422C47.5074 12.0182 46.7001 12.1562 45.7678 12.1562C44.8355 12.1562 44.0282 12.0182 43.3459 11.7422C42.6636 11.4609 42.0985 11.0599 41.6506 10.5391C41.2079 10.0182 40.8772 9.39583 40.6584 8.67188C40.4397 7.94792 40.3303 7.14323 40.3303 6.25781C40.3303 5.07552 40.523 4.04688 40.9084 3.17188C41.2991 2.29167 41.898 1.60938 42.7053 1.125C43.5126 0.640625 44.5386 0.398438 45.7834 0.398438C47.023 0.398438 48.0412 0.640625 48.8381 1.125C49.6402 1.60938 50.234 2.29167 50.6194 3.17188C51.01 4.05208 51.2053 5.08594 51.2053 6.27344ZM42.8694 6.27344C42.8694 7.07031 42.9683 7.75781 43.1662 8.33594C43.3694 8.90885 43.6845 9.35156 44.1116 9.66406C44.5386 9.97135 45.0907 10.125 45.7678 10.125C46.4553 10.125 47.0126 9.97135 47.4397 9.66406C47.8668 9.35156 48.1767 8.90885 48.3694 8.33594C48.5673 7.75781 48.6662 7.07031 48.6662 6.27344C48.6662 5.07552 48.4423 4.13281 47.9944 3.44531C47.5465 2.75781 46.8095 2.41406 45.7834 2.41406C45.1011 2.41406 44.5439 2.57031 44.1116 2.88281C43.6845 3.1901 43.3694 3.63281 43.1662 4.21094C42.9683 4.78385 42.8694 5.47135 42.8694 6.27344ZM59.8988 12H57.4769V2.59375H54.3753V0.578125H63.0003V2.59375H59.8988V12ZM66.6781 0.578125H68.8578V6.09375C68.8578 6.36458 68.8526 6.66406 68.8422 6.99219C68.837 7.32031 68.8266 7.64323 68.8109 7.96094C68.8005 8.27344 68.7901 8.54688 68.7797 8.78125C68.7693 9.01562 68.7589 9.17188 68.7484 9.25H68.7953L74.0687 0.578125H76.9672V12H74.8109V6.51562C74.8109 6.22396 74.8161 5.90625 74.8266 5.5625C74.837 5.21875 74.85 4.88542 74.8656 4.5625C74.8865 4.23958 74.9047 3.96094 74.9203 3.72656C74.9359 3.48698 74.9464 3.32812 74.9516 3.25H74.8891L69.5922 12H66.6781V0.578125ZM81.77 12V0.578125H90.8091V12H88.395V2.59375H84.1919V12H81.77Z" fill="black"/>
</svg>
